<svg xmlns="http://www.w3.org/2000/svg" viewBox="0 0 24 24"><path fill="#FF9900" d="M.045 18.02c.072-.116.187-.124.348-.022 3.636 2.11 7.594 3.166 11.87 3.166 2.852 0 5.668-.533 8.447-1.595l.315-.14c.222-.1.383-.06.478.118.096.18.04.36-.17.534-.55.46-1.22.876-2.012 1.242a18.143 18.143 0 0 1-7.378 1.502c-4.46 0-8.392-1.17-11.794-3.508-.168-.117-.225-.244-.104-.397zm14.88-3.942c-.132-.098-.238-.064-.318.1-.29.59-.617 1.074-.98 1.45l-.313.326a3.58 3.58 0 0 1-.36.31c-.41.32-.873.6-1.387.84-.246.1-.46.16-.643.18-.206.01-.355-.09-.446-.3-.091-.21-.064-.5.08-.86l.15-.37c.19-.42.39-.87.6-1.35l.28-.63c.52-1.16.99-2.38 1.4-3.65.089-.28.141-.54.156-.78s-.016-.44-.093-.6c-.101-.24-.26-.42-.48-.54-.218-.12-.47-.18-.752-.18-.224 0-.47.04-.744.13-.272.09-.55.21-.83.37a3.95 3.95 0 0 0-.77.56c-.25.23-.49.48-.72.75a6.39 6.39 0 0 0-.88 1.45c-.17.42-.27.83-.3 1.22-.03.39.04.73.2 1.01.149.24.38.42.67.54.31.12.64.18 1.01.18.37 0 .75-.07 1.14-.22.39-.14.72-.32 1.01-.56l.18-.15c.136-.13.26-.27.37-.41l.41-.52z"/><path fill="#232F3E" d="M21.54 17.473c-.2-.153-.39-.176-.57-.07l-.33.2c-.62.37-1.28.665-1.97.886a7.354 7.354 0 0 1-2.37.393c-1.89 0-3.37-.575-4.44-1.724-1.07-1.15-1.61-2.694-1.61-4.632 0-1.975.58-3.586 1.73-4.833C13.13 6.446 14.61 5.82 16.42 5.82c.71 0 1.37.105 1.98.314.61.21 1.15.513 1.62.91.47.398.84.9 1.11 1.507.28.607.42 1.28.42 2.019 0 .598-.12 1.122-.37 1.573-.25.45-.63.7-1.14.748-.34 0-.6-.12-.78-.36-.17-.24-.22-.56-.15-.96l.48-2.68c.06-.32.01-.57-.13-.75-.15-.18-.37-.27-.68-.27-.43 0-.83.19-1.2.56-.37.37-.67.86-.9 1.47-.23.61-.35 1.24-.35 1.89 0 .63.14 1.12.43 1.47.28.35.69.52 1.22.52.31 0 .62-.09.92-.27.3-.18.56-.4.78-.66l.1-.12c.06-.08.15-.06.26.04l.08.1.04.06c-.35.58-.77 1.04-1.27 1.37-.5.33-1.04.5-1.62.5-.65 0-1.19-.21-1.6-.62-.42-.42-.65-1-.68-1.74-.04-.63.1-1.3.4-2.01.3-.71.71-1.32 1.24-1.83.53-.51 1.12-.77 1.77-.77.35 0 .62.1.82.3.2.2.28.48.23.83l-.1.53c.42-.54.86-.96 1.34-1.26a2.84 2.84 0 0 1 1.49-.45c.48 0 .87.2 1.16.6.29.4.38.94.26 1.6l-.45 2.47c-.05.27-.03.47.06.61.09.14.23.2.43.2.34 0 .67-.21 1-.62.32-.42.56-.96.7-1.62.15-.66.22-1.3.22-1.93 0-.65-.1-1.27-.33-1.87a4.72 4.72 0 0 0-.96-1.56 4.67 4.67 0 0 0-1.56-1.09A5.1 5.1 0 0 0 16.36 5c-1.58 0-2.97.49-4.17 1.46a9.19 9.19 0 0 0-2.77 3.75c-.62 1.5-.93 3.05-.93 4.66 0 1.85.54 3.34 1.62 4.48 1.08 1.14 2.58 1.71 4.5 1.71 1.06 0 2.06-.2 3-.57.93-.39 1.7-.88 2.3-1.48.13-.12.22-.23.27-.34.05-.1.02-.19-.08-.26z"/></svg>
